<?xml version="1.0" encoding="iso-8859-1"?>
<!-- Generator: Adobe Illustrator 19.0.0, SVG Export Plug-In . SVG Version: 6.00 Build 0)  -->
<svg version="1.1" id="Capa_1" xmlns="http://www.w3.org/2000/svg" xmlns:xlink="http://www.w3.org/1999/xlink" x="0px" y="0px"
	 viewBox="0 0 472.615 472.615" style="enable-background:new 0 0 472.615 472.615;" xml:space="preserve">
<g>
	<g>
		<path d="M304.739,0c-92.554,0-167.385,74.831-167.385,167.385s74.831,167.385,167.385,167.385s167.385-74.831,167.385-167.385
			S397.292,0,304.739,0z M304.739,315.077c-81.723,0-147.692-65.969-147.692-147.692S223.015,19.692,304.739,19.692
			s147.692,65.969,147.692,147.692S386.462,315.077,304.739,315.077z"/>
	</g>
</g>
<g>
	<g>
		
			<rect x="122.011" y="304.601" transform="matrix(0.6848 -0.7287 0.7287 0.6848 -176.8773 219.9485)" width="87.629" height="19.692"/>
	</g>
</g>
<g>
	<g>
		<path d="M144.246,338.707l-6.892-6.892c-13.785-13.785-29.539-17.723-38.4-8.861L5.415,413.538
			c-1.969,1.969-4.923,5.908-4.923,11.815c0,7.877,4.923,17.723,12.8,26.585l6.892,6.892c8.862,8.862,18.708,13.785,26.585,13.785
			c3.939,0,7.877-0.985,11.815-4.923l93.539-90.585c1.969-1.969,4.923-5.908,4.923-11.815
			C157.046,357.415,152.123,347.569,144.246,338.707z M45.785,452.923c-1.969-0.984-6.892-2.954-11.815-7.877l-6.892-6.892
			c-4.923-4.923-6.892-9.846-6.892-11.815l90.585-88.615c1.969,0.984,6.892,2.954,11.815,7.877l6.892,6.892
			c4.923,4.923,6.892,9.846,6.892,11.815L45.785,452.923z"/>
	</g>
</g>
<g>
	<g>
		<path d="M200.369,146.708c-16.739,0-29.539,12.8-29.539,29.538s12.8,29.538,29.539,29.538c16.739,0,29.538-12.8,29.538-29.538
			S217.108,146.708,200.369,146.708z M200.369,186.092c-4.923,0-9.846-3.938-9.846-9.846c0-5.908,3.938-9.846,9.846-9.846
			c5.908,0,9.846,3.938,9.846,9.846C210.215,182.154,206.277,186.092,200.369,186.092z"/>
	</g>
</g>
<g>
	<g>
		<path d="M266.339,60.062c-16.738,0-29.538,12.8-29.538,29.538s12.8,29.538,29.538,29.538c15.754,0,29.538-12.8,29.538-29.538
			S283.077,60.062,266.339,60.062z M266.339,99.446c-4.923,0-9.846-3.938-9.846-9.846c0-5.908,3.938-9.846,9.846-9.846
			c4.923,0,9.846,3.938,9.846,9.846C276.185,95.508,271.262,99.446,266.339,99.446z"/>
	</g>
</g>
<g>
	<g>
		<path d="M333.292,209.723c-16.738,0-29.538,12.8-29.538,29.538s12.8,29.538,29.538,29.538c16.739,0,29.538-12.8,29.538-29.538
			S350.031,209.723,333.292,209.723z M333.292,249.108c-4.923,0-9.846-3.938-9.846-9.846s3.938-9.846,9.846-9.846
			c5.908,0,9.846,3.938,9.846,9.846S338.215,249.108,333.292,249.108z"/>
	</g>
</g>
<g>
	<g>
		<path d="M411.077,108.308c-16.738,0-29.538,12.8-29.538,29.538s12.8,29.538,29.538,29.538c15.754,0,29.538-12.8,29.538-29.538
			S427.815,108.308,411.077,108.308z M411.077,147.692c-4.923,0-9.846-3.938-9.846-9.846c0-5.908,3.938-9.846,9.846-9.846
			c4.923,0,9.846,3.938,9.846,9.846C420.923,143.754,416,147.692,411.077,147.692z"/>
	</g>
</g>
<g>
	<g>
		
			<rect x="200.953" y="121.55" transform="matrix(0.6093 -0.7929 0.7929 0.6093 -13.3698 235.6565)" width="63.013" height="19.692"/>
	</g>
</g>
<g>
	<g>
		
			<rect x="288.48" y="106.488" transform="matrix(0.9077 -0.4196 0.4196 0.9077 -42.3515 140.5498)" width="19.692" height="120.122"/>
	</g>
</g>
<g>
	<g>
		
			<rect x="326.559" y="177.284" transform="matrix(0.5948 -0.8039 0.8039 0.5948 -0.3506 373.5658)" width="87.633" height="19.693"/>
	</g>
</g>
<g>
</g>
<g>
</g>
<g>
</g>
<g>
</g>
<g>
</g>
<g>
</g>
<g>
</g>
<g>
</g>
<g>
</g>
<g>
</g>
<g>
</g>
<g>
</g>
<g>
</g>
<g>
</g>
<g>
</g>
</svg>
